PathFileType	4	(X/Y/Z)	C:\Users\Vitor Bertoli\OneDrive\Documents\Yolotestes\IMG_0212_Sports2D\IMG_0212_Sports2D_m_person00.trc
DataRate	CameraRate	NumFrames	NumMarkers	Units	OrigDataRate	OrigDataStartFrame	OrigNumFrames
112	112	10	22	m	112	50	401
Frame#	Time	Hip			RHip			RKnee			RAnkle			RBigToe			RSmallToe			RHeel			LHip			LKnee			LAnkle			LBigToe			LSmallToe			LHeel			Neck			Head			Nose			RShoulder			RElbow			RWrist			LShoulder			LElbow			LWrist		
		X1	Y1	Z1	X2	Y2	Z2	X3	Y3	Z3	X4	Y4	Z4	X5	Y5	Z5	X6	Y6	Z6	X7	Y7	Z7	X8	Y8	Z8	X9	Y9	Z9	X10	Y10	Z10	X11	Y11	Z11	X12	Y12	Z12	X13	Y13	Z13	X14	Y14	Z14	X15	Y15	Z15	X16	Y16	Z16	X17	Y17	Z17	X18	Y18	Z18	X19	Y19	Z19	X20	Y20	Z20	X21	Y21	Z21	X22	Y22	Z22
50	0.4464285714285714	1.8531236685259176	0.8096481838663709	0.0	1.7543955207230786	0.8339259638130067	0.0	1.5735078875185693	0.45382808354221077	0.0	1.3087305386984667	0.09760228430756498	0.0	1.3901348038324186	-0.025685163715728498	0.0	1.3350270651571157	-0.021376624443756178	0.0	1.239387383044724	0.05833378808685645	0.0	1.9595063103349926	0.8068694178760739	0.0	2.1307491236948386	0.49670795723637734	0.0	1.9205233927114624	0.12959196097569411	0.0	2.066491538467248	0.009388476466050432	0.0	2.0561996032880567	0.030638924046212466	0.0	1.8617192529292257	0.08505009060121899	0.0	2.2393544317602934	1.223173979309737	0.0	2.4832196579044794	1.3795397082748182	0.0	2.4319496023885256	1.233670396844684	0.0	2.0718319128619904	1.2104266094830027	0.0	1.9390531410281073	0.9343748335295518	0.0	2.204251360436417	0.8068147337615298	0.0	2.250572911709467	1.149767541172905	0.0	2.035500843643119	1.0046984915877128	0.0	1.952649632615309	0.8095292187189842	0.0
51	0.45535714285714285	1.8565351003627784	0.806487770890134	0.0	1.7583282087734706	0.8305452667178606	0.0	1.5751754836995693	0.4507115876916858	0.0	1.3062533822487794	0.0976465841321163	0.0	1.3877735086945333	-0.026021728756798333	0.0	1.33321127470375	-0.02129949750668981	0.0	1.2367552292975674	0.05904124884096438	0.0	1.9630818744125946	0.8044696508910526	0.0	2.1373890220344918	0.49504684324987663	0.0	1.9192415354377996	0.13249589276524432	0.0	2.0627657830985555	0.010108992994008437	0.0	2.0532858508010934	0.03153133751984159	0.0	1.8586915302699811	0.0885885966212966	0.0	2.2419952571552857	1.2212047581935022	0.0	2.4863522004800758	1.3783775481976845	0.0	2.435092659926859	1.2323547314198235	0.0	2.076401656251518	1.2087344056616987	0.0	1.9484478466051085	0.9312843684571244	0.0	2.216844841595478	0.8117967742978184	0.0	2.2516993720698797	1.1475242085895097	0.0	2.0370193393132454	1.0043326059151847	0.0	1.9530981223926929	0.8127175568014774	0.0
52	0.46428571428571425	1.860333566450355	0.8030333514908811	0.0	1.7626787541864226	0.8269181168786978	0.0	1.5767883178217834	0.447458825194225	0.0	1.3037175859571644	0.09763617543968656	0.0	1.3855946743179126	-0.02633119075938044	0.0	1.3315756456957109	-0.02118984620283939	0.0	1.2341506805086564	0.05973912864096364	0.0	1.9668962708602309	0.801651811510171	0.0	2.14408414267445	0.492757948792023	0.0	1.917196219548622	0.13530739005950712	0.0	2.058468821037794	0.010813674223482594	0.0	2.0498223051366598	0.032450480872066326	0.0	1.8549042507294682	0.09214636722095819	0.0	2.2450223535788654	1.2193332794392386	0.0	2.489661455116409	1.3774735674904646	0.0	2.4386192363465575	1.231229488359648	0.0	2.081680167457264	1.2073890774200304	0.0	1.9583919467048816	0.928704996504218	0.0	2.229737754704282	0.8177877967333421	0.0	2.2529711432719113	1.1453182424436317	0.0	2.0388572707638355	1.0039347259975149	0.0	1.953904098124654	0.8163756558649572	0.0
53	0.4732142857142857	1.8645526849073397	0.7993109616309702	0.0	1.7674888734815433	0.8230832371529738	0.0	1.5784198400899319	0.44418807673862576	0.0	1.301233390197662	0.09763747496343772	0.0	1.3836309531166342	-0.02657484088989856	0.0	1.3301205557512867	-0.021009668793173928	0.0	1.2316892117310452	0.06046076173946041	0.0	1.9709527258414319	0.7984123236318389	0.0	2.150672417791504	0.4897775260382172	0.0	1.914340225521187	0.13792980018939952	0.0	2.0535811392504035	0.01146898173592187	0.0	2.045817300757046	0.03334587027014499	0.0	1.850377057581255	0.0955980400195651	0.0	2.248530110176715	1.217592391108954	0.0	2.4932565230608086	1.376840256168303	0.0	2.4425785271134495	1.2303399711306389	0.0	2.087808897779222	1.2064586655086138	0.0	1.9688400246719087	0.926790746686043	0.0	2.242925088927261	0.8246477708686534	0.0	2.2545159398600982	1.1431982578445357	0.0	2.0411776836356896	1.003552215949773	0.0	1.9552886260140176	0.8204777149052701	0.0
54	0.4821428571428571	1.8692177306285862	0.7953756686981691	0.0	1.7727946297580914	0.8191114275240176	0.0	1.5801502835309365	0.4410255557157079	0.0	1.2989199607473085	0.09772706762108768	0.0	1.3818632084842275	-0.02676854183398097	0.0	1.3288125521466496	-0.02075363692324841	0.0	1.2294912078170293	0.06125268041020068	0.0	1.9752499792095528	0.7947835125625549	0.0	2.1569747432903448	0.48608907421203373	0.0	1.9106745306401982	0.14024500504710227	0.0	2.048101271137353	0.011992562649049065	0.0	2.041278033743737	0.03412944733119565	0.0	1.845170635741528	0.09880156732832945	0.0	2.252616479577778	1.216013524034174	0.0	2.497239494096509	1.3765102683022148	0.0	2.447036409706695	1.2297330319619921	0.0	2.094916474617177	1.2059875713049606	0.0	1.9797312214663365	0.9256703969412644	0.0	2.256395702382392	0.8322009445659647	0.0	2.256468663307807	1.1412459838479516	0.0	2.0441369390118678	1.003246949538893	0.0	1.95747191671884	0.8250390559311039	0.0
55	0.49107142857142855	1.874341615424645	0.7913106270251007	0.0	1.778606662241637	0.8151055374303698	0.0	1.5820756467242898	0.43808398623769196	0.0	1.2968980043655607	0.09797417537811191	0.0	1.3802295095240331	-0.026973441151739667	0.0	1.327597362734271	-0.02045448892151479	0.0	1.2276689952596618	0.062162493186042556	0.0	1.9798128251493219	0.790830214439166	0.0	2.1628128640351303	0.481715945757325	0.0	1.9062387791873059	0.14211153716077066	0.0	2.042074690169699	0.012291090243699149	0.0	2.0362326613828743	0.03470111238408378	0.0	1.8393663138564897	0.10158506566497905	0.0	2.257374332791545	1.214613769508315	0.0	2.5017080449537836	1.3765155390499932	0.0	2.4520646012798126	1.22943980267944	0.0	2.103091076929406	1.2059918824446723	0.0	1.9909742614372763	0.9254265766392272	0.0	2.2700976294870143	0.8402383731399993	0.0	2.2589511148976764	1.1395575127163733	0.0	2.0478582583123908	1.0030991947650498	0.0	1.9606782556163582	0.830120248025456	0.0
56	0.5	1.879926469650739	0.7872285999975575	0.0	1.7848999423280498	0.8111956194145356	0.0	1.5843194833980185	0.4354568992820139	0.0	1.2952811958002737	0.09843095693580399	0.0	1.3786575180900211	-0.02725366102950608	0.0	1.326421569081839	-0.020160104061968633	0.0	1.2263163247722701	0.06323207324048322	0.0	1.9846969499463114	0.7866595306061259	0.0	2.168025878005595	0.47670825191868976	0.0	1.9011044619597013	0.14337955164883393	0.0	2.0356120420206243	0.012306985246382997	0.0	2.030761994595951	0.034975006509550995	0.0	1.8330534575430653	0.10375127081805419	0.0	2.2628844851745726	1.213402974208467	0.0	2.5067696454442334	1.3768568927938791	0.0	2.457732958103379	1.2294649403890103	0.0	2.1123582262039164	1.2064484438553766	0.0	2.0024494562645825	0.9260814536382567	0.0	2.2839134271733186	0.8485152573271775	0.0	2.2620770725187214	1.1382117045671907	0.0	2.0524249479743726	1.003185676316984	0.0	1.9651474178342465	0.8357555386617247	0.0
57	0.5089285714285714	1.8859753632166936	0.7832688053987144	0.0	1.791636420499768	0.8075157798093703	0.0	1.587022495652894	0.4332200383254343	0.0	1.29417789251201	0.09913605453244212	0.0	1.377073799508614	-0.027668617223563514	0.0	1.3252372985813756	-0.01991832506453266	0.0	1.2255115167424226	0.06450938016094222	0.0	1.989966768510219	0.7824093379879447	0.0	2.1724790054584844	0.47113527803137134	0.0	1.8953782871608829	0.14390852576292382	0.0	2.0288885708220117	0.01200415574412663	0.0	2.0250000752388866	0.034876208045537115	0.0	1.8263318409535365	0.10510953345737443	0.0	2.2692187390170884	1.2123941723150045	0.0	2.5125179266631466	1.3775048902582283	0.0	2.464112748274058	1.2297824791598795	0.0	2.1226734868473645	1.2072965306042605	0.0	2.0140324099809996	0.9276065143637466	0.0	2.2976617926411844	0.8567477921580641	0.0	2.2659989246207477	1.1372574118947623	0.0	2.0579212053867733	1.003514501482005	0.0	1.9710924962990832	0.8418635133140201	0.0
58	0.5178571428571428	1.8924975911452995	0.7795819637491804	0.0	1.7987934319366867	0.8041747124817975	0.0	1.590322538643269	0.4314227903272515	0.0	1.2936913166583055	0.10012022652532612	0.0	1.375391928289839	-0.028280912733986554	0.0	1.3239877764052141	-0.019774036139565302	0.0	1.2253260262815933	0.06606575486605698	0.0	1.9956771184837379	0.7782185532986655	0.0	2.1760776023022657	0.46508631107240117	0.0	1.8892144017320067	0.14359867402923882	0.0	2.022125462291297	0.011344723907225972	0.0	2.019117479356089	0.03434171332974042	0.0	1.8193303428158272	0.10552926734758501	0.0	2.276432882597933	1.2116027647203316	0.0	2.519017474377865	1.3784173230224819	0.0	2.4712721032051133	1.2303399947518538	0.0	2.1339349912933026	1.2084575203842156	0.0	2.025612422546465	0.9299460740012512	0.0	2.3111127092345476	0.8646154479950156	0.0	2.270923476699432	1.1367197626041803	0.0	2.0644360079741957	1.0040074600298448	0.0	1.9786222019062547	0.8481923851178468	0.0
59	0.5267857142857143	1.8994940755092296	0.7763076747843272	0.0	1.80636525950535	0.8012500347612913	0.0	1.5943445569443302	0.4300681185922978	0.0	1.2939094681537493	0.10141978021228784	0.0	1.3735216843004892	-0.029128240466861112	0.0	1.322602895814262	-0.01975018458729083	0.0	1.2258185610797387	0.06800097522065635	0.0	2.001862604101648	0.7742099603386162	0.0	2.1787922093126526	0.4586876897473455	0.0	1.8828255432922696	0.14243957023645387	0.0	2.015565617179543	0.010321094415953228	0.0	2.0133173696807805	0.033347526984538814	0.0	1.8122336624575213	0.1049844225919511	0.0	2.2845497337457217	1.211041989250368	0.0	2.5263297707273393	1.3795328453012399	0.0	2.479251994711476	1.2310784874644805	0.0	2.1460156216401924	1.2098557160592285	0.0	2.037088441626155	0.9330283055781725	0.0	2.3240071480410918	0.8717676980320437	0.0	2.2770318572685913	1.1365976368142736	0.0	2.0719564512648243	1.0045857865958996	0.0	1.987689040063639	0.8543349260685785	0.0
